<?xml version="1.0" encoding="utf-8"?>
<!-- Generator: Adobe Illustrator 19.0.0, SVG Export Plug-In . SVG Version: 6.00 Build 0)  -->
<svg version="1.1" id="Layer_1" xmlns="http://www.w3.org/2000/svg" xmlns:xlink="http://www.w3.org/1999/xlink" x="0px" y="0px"
	 viewBox="0 0 1153.2 691.1" style="enable-background:new 0 0 1153.2 691.1;" xml:space="preserve">
<style type="text/css">
	.st0{fill:#FFFFFF;stroke:#FFFFFF;stroke-miterlimit:10;}
</style>
<path id="XMLID_1_" class="st0" d="M301.2,104.3v233.4l-69-64.3c0,0-138,78.8-133,218.4s144.5,164.2,144.5,164.2h836l24.6-73.9
	c0,0,44.3-85.4-144.5-116.6c0,0,39.4-156-26.3-221.7s-108.4-83.8-244.7-57.5c0,0-39.4-106.8-165.9-146.2S311,94.4,311,94.4
	S343.9-5.8,491.7,0.8s183.9,93.6,213.5,147.8c0,0,157.7-47.6,251.3,37.8s73.9,183.9,39.4,252.9c0,0,132.5,1.9,156,142.9
	c1.6,9.9,4.9,98.5-42.7,108.4h-882c0,0-206.9,6.6-226.6-226.6c0,0-9.9-151.1,139.6-287.4l-70.6-73.9L301.2,104.3z"/>
<path id="XMLID_2_" class="st0" d="M772.6,227.5c0,0,82.1-8.2,128.1,44.3c46,52.6,11.5,167.5,11.5,167.5s-6.6-118.3-26.3-142.9
	C866.2,271.8,772.6,227.5,772.6,227.5z"/>
<path id="XMLID_4_" class="st0" d="M171.4,429.5c0,0-23,83.8,0,118.3c23,34.5,87,69,131.4,54.2c0,0-87-27.9-103.5-55.8
	S166.5,454.1,171.4,429.5z"/>
</svg>
