<svg version="1.1" id="Layer_1" xmlns="http://www.w3.org/2000/svg" xmlns:xlink="http://www.w3.org/1999/xlink" x="0px" y="0px"
	 viewBox="0 0 612 792" style="enable-background:new 0 0 612 792;" xml:space="preserve">
<style type="text/css">
	.st0{fill:#FFFFFF;stroke:#000000;stroke-miterlimit:10;}
</style>
<polygon id="XMLID_2_" class="st0" points="56.8,581.3 95.8,581.3 158.2,499.3 217.2,581.3 251.8,581.3 179.2,474.3 140.8,474.3 "/>
<polygon id="XMLID_1_" class="st0" points="140.8,474.3 140.8,128 179,149.5 179.2,474.3 "/>
<polygon id="XMLID_3_" class="st0" points="140.8,128 529,128 529,149.5 179,149.5 "/>
<ellipse id="XMLID_6_" transform="matrix(-0.9968 -7.974523e-002 7.974523e-002 -0.9968 855.9037 842.7947)" class="st0" cx="444.8" cy="404.3" rx="4" ry="35.5"/>
<rect id="XMLID_4_" x="453.3" y="149.5" class="st0" width="4.5" height="93.5"/>
<ellipse id="XMLID_8_" transform="matrix(0.9968 -7.974523e-002 7.974523e-002 0.9968 -30.9001 38.8764)" class="st0" cx="471.3" cy="406.3" rx="4" ry="35.5"/>
<ellipse id="XMLID_9_" transform="matrix(0.9466 0.3223 -0.3223 0.9466 122.8601 -123.5945)" class="st0" cx="434.7" cy="309.3" rx="3.2" ry="25.8"/>
<ellipse id="XMLID_10_" transform="matrix(-0.9466 0.3223 -0.3223 -0.9466 1025.7058 443.1249)" class="st0" cx="476.2" cy="306.5" rx="3.2" ry="25.8"/>
<path id="XMLID_7_" class="st0" d="M445,270l-14,109.5c0,0,25,13,53.5,0L466,270H445z"/>
<circle id="XMLID_5_" class="st0" cx="455.5" cy="243" r="29"/>
<circle id="XMLID_11_" class="st0" cx="158" cy="486" r="6.5"/>
<polygon id="XMLID_12_" class="st0" points="244.5,149.5 179.2,214 179,225.5 256.5,149.5 "/>
</svg>
